<svg xmlns="http://www.w3.org/2000/svg" width="900" height="620" viewBox="0 0 900 620">
  <defs>
    <linearGradient id="bg" x1="0" x2="1" y1="0" y2="1">
      <stop offset="0%" stop-color="#f9dfcf"/>
      <stop offset="52%" stop-color="#fff8ef"/>
      <stop offset="100%" stop-color="#f0a37a" stop-opacity="0.5"/>
    </linearGradient>
    <filter id="shadow" x="-20%" y="-20%" width="140%" height="140%">
      <feDropShadow dx="0" dy="18" stdDeviation="18" flood-color="#6f3d2d" flood-opacity="0.2"/>
    </filter>
  </defs>
  <rect width="900" height="620" rx="46" fill="url(#bg)"/>
  <circle cx="116" cy="108" r="54" fill="#ffffff" opacity="0.27"/>
  <circle cx="786" cy="128" r="76" fill="#ffffff" opacity="0.22"/>
  <circle cx="770" cy="476" r="102" fill="#ffffff" opacity="0.22"/>
  <rect x="568" y="82" width="126" height="34" rx="17" fill="#ffffff" opacity="0.82" transform="rotate(-4 631 99)"/>
  <g filter="url(#shadow)">
    <path d="M355 176 C334 142 382 128 362 92" fill="none" stroke="#fff6ec" stroke-width="12" stroke-linecap="round" opacity="0.72"/>
    <path d="M452 166 C430 132 482 114 458 78" fill="none" stroke="#fff6ec" stroke-width="12" stroke-linecap="round" opacity="0.64"/>
    <path d="M548 176 C526 142 574 126 554 92" fill="none" stroke="#fff6ec" stroke-width="12" stroke-linecap="round" opacity="0.58"/>
    <ellipse cx="450" cy="364" rx="268" ry="126" fill="#f2c5aa"/>
    <path d="M214 326 C260 464 640 464 686 326 Z" fill="#f0a37a" opacity="0.95"/>
    <ellipse cx="450" cy="318" rx="246" ry="92" fill="#fff7e8"/>
    <ellipse cx="450" cy="322" rx="198" ry="60" fill="#f6c978" opacity="0.88"/>
    <circle cx="352" cy="318" r="22" fill="#fffaf3"/><circle cx="430" cy="342" r="18" fill="#7aa874"/><circle cx="510" cy="310" r="18" fill="#c76b51"/><circle cx="574" cy="338" r="14" fill="#fff1d0"/>
  </g>
  <g font-family="PingFang SC, Microsoft YaHei, Noto Sans CJK SC, Arial, sans-serif" text-anchor="middle">
    <rect x="80" y="494" width="740" height="84" rx="32" fill="#fffaf3" opacity="0.84"/>
    <text x="450" y="542" font-size="52" font-weight="800" fill="#3d3028">萝卜丸子汤</text>
    <text x="450" y="578" font-size="23" font-weight="600" fill="#7c675a">家常菜 &#183; 家常汤粥 &#183; 北方家常 / 家常菜</text>
  </g>
</svg>