<svg xmlns="http://www.w3.org/2000/svg" width="900" height="620" viewBox="0 0 900 620">
  <defs>
    <linearGradient id="bg" x1="0" x2="1" y1="0" y2="1">
      <stop offset="0%" stop-color="#fff0d3"/>
      <stop offset="52%" stop-color="#fff8ef"/>
      <stop offset="100%" stop-color="#ead0a0" stop-opacity="0.5"/>
    </linearGradient>
    <filter id="shadow" x="-20%" y="-20%" width="140%" height="140%">
      <feDropShadow dx="0" dy="18" stdDeviation="18" flood-color="#6f3d2d" flood-opacity="0.2"/>
    </filter>
  </defs>
  <rect width="900" height="620" rx="46" fill="url(#bg)"/>
  <circle cx="116" cy="108" r="54" fill="#ffffff" opacity="0.27"/>
  <circle cx="786" cy="128" r="76" fill="#ffffff" opacity="0.22"/>
  <circle cx="770" cy="476" r="102" fill="#ffffff" opacity="0.22"/>
  <rect x="568" y="82" width="126" height="34" rx="17" fill="#ffffff" opacity="0.82" transform="rotate(-4 631 99)"/>
  <g filter="url(#shadow)">
    <path d="M355 176 C334 142 382 128 362 92" fill="none" stroke="#fff6ec" stroke-width="12" stroke-linecap="round" opacity="0.72"/>
    <path d="M452 166 C430 132 482 114 458 78" fill="none" stroke="#fff6ec" stroke-width="12" stroke-linecap="round" opacity="0.64"/>
    <path d="M548 176 C526 142 574 126 554 92" fill="none" stroke="#fff6ec" stroke-width="12" stroke-linecap="round" opacity="0.58"/>
    <ellipse cx="450" cy="354" rx="272" ry="128" fill="#f5cfba"/>
    <ellipse cx="450" cy="328" rx="238" ry="94" fill="#fff9ee"/>
    <path d="M250 332 C267 286 311 286 327 332 C305 360 273 362 250 332Z" fill="#fff1d9" stroke="#c89b58" stroke-width="5" opacity="0.95"/><path d="M317 332 C334 286 378 286 394 332 C372 360 340 362 317 332Z" fill="#fff1d9" stroke="#ead0a0" stroke-width="5" opacity="0.95"/><path d="M384 332 C401 286 445 286 461 332 C439 360 407 362 384 332Z" fill="#fff1d9" stroke="#c89b58" stroke-width="5" opacity="0.95"/><path d="M451 332 C468 286 512 286 528 332 C506 360 474 362 451 332Z" fill="#fff1d9" stroke="#ead0a0" stroke-width="5" opacity="0.95"/><path d="M518 332 C535 286 579 286 595 332 C573 360 541 362 518 332Z" fill="#fff1d9" stroke="#c89b58" stroke-width="5" opacity="0.95"/><path d="M585 332 C602 286 646 286 662 332 C640 360 608 362 585 332Z" fill="#fff1d9" stroke="#ead0a0" stroke-width="5" opacity="0.95"/>
    <path d="M298 392 C392 428 518 428 602 392" fill="none" stroke="#fff0d3" stroke-width="14" stroke-linecap="round" opacity="0.45"/>
  </g>
  <g font-family="PingFang SC, Microsoft YaHei, Noto Sans CJK SC, Arial, sans-serif" text-anchor="middle">
    <rect x="80" y="494" width="740" height="84" rx="32" fill="#fffaf3" opacity="0.84"/>
    <text x="450" y="542" font-size="52" font-weight="800" fill="#3d3028">香菇鸡肉饺子</text>
    <text x="450" y="578" font-size="23" font-weight="600" fill="#7c675a">面食主食 &#183; 手作面点 &#183; 饺子馄饨 / 面食主食</text>
  </g>
</svg>